REM DIRINDEX 1\2,1\3,1\4,1\5
REM DIRNAME cjc044,folder01,folder02,folder03,folder04
TITLE ""
FILE "1800_089.mp3" MP3
  TRACK 01 AUDIO
    TITLE "2:cjc044_2381"
    INDEX 01 00:00:00
  TRACK 02 AUDIO
    TITLE "0:"
    INDEX 01 00:01:19
  TRACK 03 AUDIO
    TITLE "3:cjc044_2382"
    INDEX 01 00:02:00
  TRACK 04 AUDIO
    TITLE "0:"
    INDEX 01 00:03:74
  TRACK 05 AUDIO
    TITLE "4:cjc044_2383"
    INDEX 01 00:04:52
  TRACK 06 AUDIO
    TITLE "0:"
    INDEX 01 00:06:06
  TRACK 07 AUDIO
    TITLE "5:cjc044_2384"
    INDEX 01 00:06:65
  TRACK 08 AUDIO
    TITLE "0:"
    INDEX 01 00:10:37
  TRACK 09 AUDIO
    TITLE "2:cjc044_2385"
    INDEX 01 00:12:18
  TRACK 10 AUDIO
    TITLE "0:"
    INDEX 01 00:13:49
  TRACK 11 AUDIO
    TITLE "3:cjc044_2386"
    INDEX 01 00:14:25
  TRACK 12 AUDIO
    TITLE "0:"
    INDEX 01 00:15:40
  TRACK 13 AUDIO
    TITLE "4:cjc044_2387"
    INDEX 01 00:16:20
  TRACK 14 AUDIO
    TITLE "0:"
    INDEX 01 00:17:49
  TRACK 15 AUDIO
    TITLE "5:cjc044_2388"
    INDEX 01 00:18:29
  TRACK 16 AUDIO
    TITLE "0:"
    INDEX 01 00:21:45
  TRACK 17 AUDIO
    TITLE "2:cjc044_2389"
    INDEX 01 00:23:26
  TRACK 18 AUDIO
    TITLE "0:"
    INDEX 01 00:24:41
  TRACK 19 AUDIO
    TITLE "3:cjc044_2390"
    INDEX 01 00:25:23
  TRACK 20 AUDIO
    TITLE "0:"
    INDEX 01 00:26:26
  TRACK 21 AUDIO
    TITLE "4:cjc044_2391"
    INDEX 01 00:27:10
  TRACK 22 AUDIO
    TITLE "0:"
    INDEX 01 00:28:29
  TRACK 23 AUDIO
    TITLE "5:cjc044_2392"
    INDEX 01 00:29:01
  TRACK 24 AUDIO
    TITLE "0:"
    INDEX 01 00:31:61
  TRACK 25 AUDIO
    TITLE "2:cjc044_2393"
    INDEX 01 00:33:42
  TRACK 26 AUDIO
    TITLE "0:"
    INDEX 01 00:34:63
  TRACK 27 AUDIO
    TITLE "3:cjc044_2394"
    INDEX 01 00:35:49
  TRACK 28 AUDIO
    TITLE "0:"
    INDEX 01 00:36:36
  TRACK 29 AUDIO
    TITLE "4:cjc044_2395"
    INDEX 01 00:37:26
  TRACK 30 AUDIO
    TITLE "0:"
    INDEX 01 00:38:49
  TRACK 31 AUDIO
    TITLE "5:cjc044_2396"
    INDEX 01 00:39:25
  TRACK 32 AUDIO
    TITLE "0:"
    INDEX 01 00:42:43
  TRACK 33 AUDIO
    TITLE "2:cjc044_2397"
    INDEX 01 00:44:32
  TRACK 34 AUDIO
    TITLE "0:"
    INDEX 01 00:45:43
  TRACK 35 AUDIO
    TITLE "3:cjc044_2398"
    INDEX 01 00:46:35
  TRACK 36 AUDIO
    TITLE "0:"
    INDEX 01 00:47:58
  TRACK 37 AUDIO
    TITLE "4:cjc044_2399"
    INDEX 01 00:48:32
  TRACK 38 AUDIO
    TITLE "0:"
    INDEX 01 00:49:43
  TRACK 39 AUDIO
    TITLE "5:cjc044_2400"
    INDEX 01 00:50:17
  TRACK 40 AUDIO
    TITLE "0:"
    INDEX 01 00:53:51
  TRACK 41 AUDIO
    TITLE "2:cjc044_2401"
    INDEX 01 00:55:40
  TRACK 42 AUDIO
    TITLE "0:"
    INDEX 01 00:56:49
  TRACK 43 AUDIO
    TITLE "3:cjc044_2402"
    INDEX 01 00:57:31
  TRACK 44 AUDIO
    TITLE "0:"
    INDEX 01 00:58:22
  TRACK 45 AUDIO
    TITLE "4:cjc044_2403"
    INDEX 01 00:59:08
  TRACK 46 AUDIO
    TITLE "0:"
    INDEX 01 01:00:19
  TRACK 47 AUDIO
    TITLE "5:cjc044_2404"
    INDEX 01 01:00:66
  TRACK 48 AUDIO
    TITLE "0:"
    INDEX 01 01:04:37
  TRACK 49 AUDIO
    TITLE "2:cjc044_2405"
    INDEX 01 01:06:26
  TRACK 50 AUDIO
    TITLE "0:"
    INDEX 01 01:07:23
  TRACK 51 AUDIO
    TITLE "3:cjc044_2406"
    INDEX 01 01:08:15
  TRACK 52 AUDIO
    TITLE "0:"
    INDEX 01 01:09:69
  TRACK 53 AUDIO
    TITLE "4:cjc044_2407"
    INDEX 01 01:10:53
  TRACK 54 AUDIO
    TITLE "0:"
    INDEX 01 01:11:51
  TRACK 55 AUDIO
    TITLE "5:cjc044_2408"
    INDEX 01 01:12:24
  TRACK 56 AUDIO
    TITLE "0:"
    INDEX 01 01:15:01
  TRACK 57 AUDIO
    TITLE "2:cjc044_2409"
    INDEX 01 01:16:58
  TRACK 58 AUDIO
    TITLE "0:"
    INDEX 01 01:18:04
  TRACK 59 AUDIO
    TITLE "3:cjc044_2410"
    INDEX 01 01:18:64
  TRACK 60 AUDIO
    TITLE "0:"
    INDEX 01 01:20:42
  TRACK 61 AUDIO
    TITLE "4:cjc044_2411"
    INDEX 01 01:21:25
  TRACK 62 AUDIO
    TITLE "0:"
    INDEX 01 01:22:48
  TRACK 63 AUDIO
    TITLE "5:cjc044_2412"
    INDEX 01 01:23:18
  TRACK 64 AUDIO
    TITLE "0:"
    INDEX 01 01:25:51
  TRACK 65 AUDIO
    TITLE "2:cjc044_2413"
    INDEX 01 01:27:42
  TRACK 66 AUDIO
    TITLE "0:"
    INDEX 01 01:28:61
  TRACK 67 AUDIO
    TITLE "3:cjc044_2414"
    INDEX 01 01:29:41
  TRACK 68 AUDIO
    TITLE "0:"
    INDEX 01 01:30:48
  TRACK 69 AUDIO
    TITLE "4:cjc044_2415"
    INDEX 01 01:31:34
  TRACK 70 AUDIO
    TITLE "0:"
    INDEX 01 01:32:55
  TRACK 71 AUDIO
    TITLE "5:cjc044_2416"
    INDEX 01 01:33:27
  TRACK 72 AUDIO
    TITLE "0:"
    INDEX 01 01:36:62
